<svg xmlns="http://www.w3.org/2000/svg" aria-hidden="true" style="position:absolute;width:0;height:0;overflow:hidden">
    <defs>
        <symbol id="heart" viewBox="0 0 22 20">
            <path
                d="M16.021 0c-1.926 0-3.768 0.884-4.968 2.274-1.2-1.389-3.053-2.274-4.968-2.274-3.411 0-6.084 2.642-6.084 5.989 0 4.116 3.758 7.474 9.453 12.568l1.6 1.442 1.6-1.432c5.695-5.095 9.453-8.453 9.453-12.579 0-3.347-2.674-5.989-6.084-5.989zM12.347 16.768l-1.295 1.126-1.295-1.137c-4.611-4.021-7.653-6.663-7.653-9.916 0-2.653 2.168-4.737 4.916-4.737 1.558 0 3.053 0.695 4.032 1.8 0.979-1.105 2.474-1.8 4.032-1.8 2.747 0 4.916 2.084 4.916 4.737 0 3.253-3.042 5.895-7.653 9.926z">
            </path>
        </symbol>
        <symbol id="puzzle-icon" viewBox="0 0 35 32">
            <path
                d="M8.527 31.843c1.691 0 3.065-1.23 3.065-2.744 0-0.541-0.176-1.045-0.481-1.471h0.083c-1.346-1.471-1.204-2.675 0.222-3.097h4.716c0.532 0 0.968-0.435 0.968-0.968v-4.187c0.33-2.858 1.551-2.009 2.989-1.124 3.472 2.137 5.781-2.926 2.974-4.659-2.203-1.361-3.156 0.979-4.77 0.737-0.623-0.094-1.056-0.768-1.193-1.793v-4.138c0-0.532-0.435-0.968-0.968-0.968h-4.13c-1.955-0.248-2.325-1.563-0.811-3.216h-0.083c0.305-0.427 0.481-0.931 0.481-1.471 0.003-1.514-1.369-2.744-3.063-2.744-1.691 0-3.063 1.23-3.063 2.744 0 0.541 0.176 1.045 0.481 1.471h-0.020c1.514 1.654 1.147 2.971-0.811 3.216h-4.147c-0.532 0-0.968 0.435-0.968 0.968v4.315c0.31 1.776 1.591 2.066 3.185 0.606v0.020c0.427-0.305 0.931-0.481 1.472-0.481 1.514 0 2.744 1.372 2.744 3.063s-1.23 3.063-2.744 3.063c-0.541 0-1.045-0.176-1.471-0.481v0.083c-1.594-1.46-2.875-1.167-3.185 0.609v4.372c0 0.532 0.435 0.968 0.968 0.968h4.733c1.426 0.421 1.571 1.625 0.222 3.097h0.020c-0.302 0.427-0.481 0.931-0.481 1.471 0.003 1.514 1.375 2.744 3.065 2.741v0 0zM26.447 32h-0.006c-1.691 0-3.065-1.23-3.065-2.744 0-0.541 0.176-1.045 0.481-1.471h-0.020c1.346-1.471 1.204-2.675-0.222-3.097h-4.733c-0.532 0-0.968-0.435-0.968-0.968v-4.363c0.228-0.66 0.518-0.894 0.86-0.902 0.157-0.003 0.322 0.040 0.498 0.114 0.495 0.205 1.076 0.635 1.708 0.879 2.436 0.939 4.528-1.432 4.389-3.868-0.031-0.544-0.25-1.079-0.575-1.574-1.244-1.901-3.085-2.081-4.861-0.996-0.905 0.555-1.625 0.973-2.038-0.333l0.023-4.124c0.003-0.532 0.435-0.968 0.968-0.968h4.144c1.955-0.248 2.325-1.563 0.811-3.216h0.020c-0.305-0.427-0.481-0.931-0.481-1.471 0-1.514 1.372-2.744 3.065-2.744h0.006c1.691 0 3.065 1.23 3.065 2.744 0 0.541-0.176 1.045-0.481 1.471h0.020c-1.514 1.654-1.147 2.971 0.811 3.216h4.144c0.532 0 0.968 0.435 0.968 0.968v4.315c-0.31 1.776-1.591 2.066-3.185 0.606v0.020c-0.427-0.305-0.931-0.481-1.471-0.481-1.514 0-2.744 1.372-2.744 3.063s1.23 3.065 2.744 3.065c0.541 0 1.045-0.176 1.471-0.481v0.083c1.597-1.46 2.875-1.167 3.185 0.609v4.363c0 0.532-0.435 0.968-0.968 0.968h-4.733c-1.426 0.421-1.568 1.625-0.222 3.097h-0.023c0.305 0.427 0.481 0.931 0.481 1.471-0.003 1.52-1.375 2.749-3.065 2.749v0 0z">
            </path>
        </symbol>
        <symbol id="puzzle" viewBox="0 0 26 32">
            <path
                d="M17.253 7.52c-0.568 0.099-1.003 0.539-1.099 1.112l-0.032 0.195h-1.093c-0.672 0-1.133 0.011-1.195 0.027-0.133 0.037-0.259 0.147-0.317 0.28-0.045 0.099-0.051 0.197-0.051 1.232v1.125l0.128 0.016c0.347 0.048 0.595 0.168 0.819 0.397 0.768 0.784 0.309 2.117-0.773 2.251l-0.16 0.019-0.008 1.107c-0.005 0.715 0.003 1.141 0.021 1.203 0.037 0.131 0.117 0.229 0.243 0.291 0.096 0.051 0.16 0.053 1.245 0.053h1.141l0.032 0.203c0.080 0.515 0.456 0.939 0.963 1.088 0.179 0.053 0.501 0.056 0.685 0.005 0.507-0.136 0.896-0.565 0.976-1.091l0.035-0.205h1.141c1.067 0 1.147-0.003 1.24-0.051 0.123-0.061 0.179-0.123 0.232-0.251 0.035-0.083 0.040-0.272 0.040-1.232v-1.133h-0.099c-0.408-0.003-0.888-0.328-1.093-0.739-0.395-0.797 0.107-1.76 0.992-1.904l0.2-0.032v-1.123c0-1.032-0.005-1.131-0.051-1.229-0.059-0.133-0.184-0.243-0.317-0.28-0.061-0.016-0.523-0.027-1.192-0.027h-1.096l-0.029-0.187c-0.067-0.429-0.344-0.808-0.728-0.995-0.272-0.133-0.528-0.173-0.8-0.125z">
            </path>
            <path
                d="M4.379 8.909c-0.069 0.035-0.147 0.104-0.187 0.165l-0.072 0.109-0.016 2.325-0.2 0.032c-0.643 0.101-1.131 0.667-1.131 1.312s0.488 1.211 1.131 1.312l0.203 0.035v1.131c0 1.099 0.003 1.136 0.056 1.251 0.035 0.069 0.101 0.144 0.165 0.187l0.109 0.072 2.336 0.016v-0.091c0-0.253 0.147-0.581 0.363-0.816 0.752-0.813 2.109-0.395 2.285 0.704l0.032 0.203 2.323-0.016 0.096-0.064c0.051-0.035 0.123-0.107 0.157-0.157l0.064-0.096 0.016-2.331 0.147-0.019c0.512-0.064 0.912-0.381 1.104-0.88 0.091-0.229 0.091-0.651 0-0.88-0.192-0.493-0.595-0.816-1.101-0.88l-0.152-0.019-0.003-1.125c0-0.8-0.011-1.147-0.035-1.211-0.043-0.123-0.192-0.267-0.307-0.299-0.056-0.016-0.544-0.027-1.203-0.027h-1.107l-0.035 0.203c-0.101 0.651-0.667 1.131-1.331 1.131-0.341 0-0.656-0.136-0.917-0.397-0.243-0.243-0.397-0.573-0.397-0.848v-0.088h-1.139c-1.112 0-1.144 0.003-1.256 0.056z">
            </path>
        </symbol>
        <symbol id="puzzle-chain" viewBox="0 0 32 32">
            <path fill="#257bbf" style="fill: var(--color1, #257bbf)"
                d="M26.15 28.683c-1.095-0.987-2.092-2.082-2.974-3.264-0.063-0.084-0.127-0.168-0.189-0.253 0.89-0.587 1.781-1.174 2.673-1.761 0.111-0.073 0.222-0.147 0.334-0.22-0 0-0 0-0 0s0-0 0-0c-0.884-0.156-1.765-0.356-2.634-0.601-0.403-0.114-0.803-0.236-1.199-0.37-0.411-0.138-0.817-0.287-1.219-0.448-0.038-0.014-0.075-0.029-0.112-0.044-0.077-0.031-0.153-0.063-0.23-0.095l0-0c0.030-0.046 0.058-0.093 0.087-0.14 0.062-0.098 0.124-0.196 0.185-0.296 0.008-0.013 0.016-0.026 0.024-0.039 0.034-0.056 0.068-0.112 0.101-0.169 0.031-0.051 0.060-0.103 0.090-0.155 0.011-0.018 0.021-0.036 0.032-0.054 0.002-0.003 0.004-0.007 0.006-0.010 0.043-0.073 0.084-0.147 0.126-0.221 0.028-0.050 0.055-0.101 0.083-0.151 0.018-0.033 0.036-0.066 0.054-0.099 0.077-0.142 0.153-0.284 0.227-0.429 0.028-0.054 0.054-0.109 0.081-0.164 0.041-0.082 0.082-0.163 0.122-0.245-0-0-0-0-0-0 0.645-1.326 1.156-2.728 1.461-4.166v-0c0 0 0 0 0 0 0.020-0.092 0.038-0.185 0.056-0.278 0.001-0.006 0.002-0.011 0.003-0.017 0.002-0.008 0.003-0.015 0.004-0.023 0.011-0.059 0.023-0.119 0.033-0.178 0.003-0.015 0.006-0.030 0.008-0.044 0.004-0.026 0.008-0.051 0.013-0.077 0.007-0.041 0.014-0.081 0.020-0.122 0.001-0.004 0.001-0.009 0.002-0.013 0.006-0.036 0.011-0.072 0.017-0.107 0-0.003 0.001-0.005 0.001-0.008 0.007-0.045 0.013-0.089 0.020-0.134 0.004-0.028 0.008-0.056 0.012-0.083l0.001-0.011c0.001-0.009 0.002-0.018 0.003-0.027 0.012-0.087 0.023-0.174 0.033-0.261 0.001-0.007 0.002-0.014 0.003-0.021 0.006-0.057 0.013-0.114 0.018-0.171 0.001-0.006 0.001-0.011 0.002-0.017 0.011-0.11 0.020-0.22 0.029-0.329 0.001-0.015 0.002-0.030 0.003-0.044 0.014-0.191 0.024-0.381 0.030-0.572 0-0.003 0-0.005 0-0.008 0-0.006 0-0.011 0-0.017 0.003-0.118 0.005-0.237 0.005-0.356 0-0.021 0.001-0.042 0.001-0.063-0-0.033-0.001-0.065-0.002-0.098-0.001-0.064-0.002-0.127-0.004-0.191-0-0.010-0-0.021-0.001-0.031-0-0.011-0.001-0.023-0.002-0.034-0.004-0.118-0.009-0.237-0.016-0.355-0.003-0.046-0.007-0.092-0.010-0.139-0.001-0.008-0.001-0.017-0.002-0.025-0.124-1.616-0.596-3.224-1.401-4.623 0 0 0-0 0-0-0.592-1.029-1.365-1.946-2.31-2.669l-0.002-0.002-0.001-0.001c0 0 0 0 0 0-0.024-0.013-0.565-0.291-1.492-0.526-0.691-0.175-1.596-0.326-2.662-0.326-1.176 0.001-2.549 0.186-4.044 0.727-0.317 0.115-0.639 0.246-0.967 0.394v-0c0 0 0 0 0 0v0-0c-0.132 0.116-0.259 0.236-0.383 0.36-0.014 0.014-0.027 0.028-0.040 0.042-0.054 0.055-0.107 0.11-0.159 0.166-0.016 0.017-0.033 0.035-0.049 0.052-0.018 0.019-0.035 0.039-0.052 0.058-0.029 0.032-0.057 0.063-0.085 0.096-0.027 0.031-0.053 0.062-0.080 0.093-0.028 0.033-0.056 0.065-0.083 0.098-0.025 0.030-0.049 0.060-0.073 0.090-0.028 0.035-0.056 0.070-0.084 0.105-0.020 0.026-0.040 0.053-0.060 0.079-0.041 0.054-0.082 0.109-0.122 0.164-0.026 0.036-0.053 0.073-0.079 0.109-0.004 0.006-0.009 0.013-0.013 0.019-0.022 0.031-0.043 0.062-0.064 0.093-0.011 0.017-0.023 0.033-0.034 0.050-0.008 0.012-0.016 0.024-0.024 0.036-0.035 0.052-0.069 0.105-0.103 0.158-0.021 0.032-0.041 0.065-0.062 0.098-0.033 0.053-0.065 0.107-0.097 0.162-0.012 0.020-0.024 0.040-0.036 0.060-0.005 0.008-0.009 0.016-0.014 0.024-0.010 0.017-0.019 0.033-0.029 0.050-0.016 0.028-0.031 0.055-0.047 0.083-0.012 0.022-0.024 0.045-0.036 0.067-0.016 0.030-0.033 0.060-0.049 0.090-0.013 0.024-0.026 0.048-0.039 0.073-0.012 0.023-0.023 0.046-0.034 0.068-0.020 0.039-0.040 0.079-0.059 0.118-0.021 0.043-0.042 0.086-0.063 0.129-0.021 0.045-0.042 0.090-0.063 0.135-0.018 0.039-0.036 0.078-0.054 0.118-0.023 0.052-0.045 0.104-0.067 0.156-0.015 0.035-0.030 0.069-0.044 0.104-0.020 0.050-0.040 0.1-0.059 0.15-0.015 0.038-0.031 0.075-0.045 0.114-0.030 0.079-0.058 0.157-0.086 0.237-0.015 0.041-0.029 0.083-0.043 0.124s-0.028 0.084-0.041 0.126c-0.002 0.006-0.004 0.012-0.005 0.017-0.027 0.082-0.052 0.165-0.077 0.248-0.002 0.008-0.005 0.015-0.007 0.023-0.021 0.072-0.042 0.145-0.062 0.218-0.011 0.043-0.022 0.085-0.034 0.128s-0.022 0.085-0.032 0.128c-0.006 0.024-0.011 0.048-0.017 0.072-0.010 0.038-0.018 0.076-0.027 0.114-0.004 0.019-0.008 0.038-0.013 0.057-0.002 0.010-0.005 0.020-0.007 0.030-0.003 0.015-0.007 0.031-0.010 0.046-0.007 0.031-0.013 0.063-0.020 0.093-0.007 0.033-0.014 0.066-0.020 0.099-0.018 0.091-0.035 0.182-0.050 0.273-0.007 0.039-0.013 0.077-0.019 0.116-0.005 0.030-0.010 0.060-0.014 0.090-0.002 0.015-0.004 0.029-0.006 0.044-0.001 0.004-0.001 0.008-0.002 0.012-0.004 0.025-0.008 0.050-0.011 0.074s-0.007 0.051-0.010 0.077c-0.005 0.034-0.009 0.070-0.013 0.105-0.022 0.175-0.039 0.351-0.053 0.526-0.003 0.040-0.005 0.080-0.008 0.12-0.003 0.053-0.007 0.106-0.010 0.159-0.001 0.015-0.002 0.030-0.003 0.045-0.003 0.065-0.006 0.131-0.008 0.195-0.003 0.091-0.004 0.182-0.005 0.273-0.001 0.055-0.001 0.11-0.001 0.164 0.001 0.056 0.001 0.113 0.003 0.169 0 0.010 0 0.020 0.001 0.029s0.001 0.018 0.001 0.027c0 0.005 0 0.011 0 0.016 0 0.012 0 0.024 0.001 0.036 0 0.014 0.001 0.027 0.002 0.041 0.001 0.025 0.002 0.050 0.003 0.076 0 0.012 0.001 0.024 0.001 0.036s0.001 0.023 0.001 0.035 0.002 0.044 0.003 0.067c0.001 0.020 0.001 0.039 0.003 0.059 0.002 0.035 0.004 0.071 0.006 0.106l0 0.001c0 0.004 0 0.007 0.001 0.011 0 0 0-0 0-0v0c0.004 0.071 0.010 0.143 0.015 0.214 0.004 0.043 0.008 0.086 0.012 0.129 0.005 0.059 0.011 0.118 0.017 0.177 0.001 0.005 0.001 0.011 0.001 0.016 0.001 0.013 0.002 0.026 0.004 0.039 0.001 0.011 0.003 0.023 0.004 0.034 0.021 0.189 0.046 0.377 0.075 0.564 0.001 0.005 0.001 0.009 0.002 0.014 0.006 0.042 0.013 0.084 0.020 0.127 0.001 0.008 0.003 0.017 0.004 0.025 0.004 0.027 0.009 0.053 0.014 0.080 0.001 0.007 0.002 0.014 0.004 0.022 0.001 0.006 0.002 0.011 0.003 0.017 0.030 0.17 0.063 0.339 0.1 0.508 0.003 0.015 0.006 0.030 0.010 0.045 0.025 0.113 0.051 0.225 0.078 0.337l0 0.002c0.006 0.025 0.012 0.048 0.018 0.073 0.005 0.021 0.011 0.042 0.016 0.062 0.010 0.039 0.020 0.079 0.031 0.118l0.001 0.007c0.003 0.013 0.008 0.027 0.011 0.041 0.006 0.023 0.012 0.046 0.018 0.069 0.009 0.034 0.019 0.068 0.028 0.102 0.012 0.044 0.025 0.088 0.037 0.133 0.405 1.413 1.013 2.775 1.748 4.054 0.076 0.132 0.153 0.263 0.232 0.394 0.015 0.024 0.030 0.048 0.045 0.072 0.36 0.591 0.743 1.156 1.148 1.693 0 0 0 0 0 0s0 0 0 0c-0.092 0.046-0.185 0.092-0.277 0.138-0-0-0-0-0-0-0.449 0.22-0.906 0.424-1.37 0.616-0.914 0.377-1.851 0.7-2.8 0.97-0.293 0.083-0.586 0.162-0.881 0.235 0.187 0.105 0.374 0.21 0.561 0.316 0.859 0.483 1.718 0.967 2.577 1.45-0.689 1.103-1.474 2.146-2.342 3.115-0.186 0.208-0.374 0.413-0.568 0.614 0 0 0 0 0 0s-0 0-0 0c1.68 0.049 3.281-0.137 4.787-0.535 0.944-0.249 1.85-0.582 2.715-0.992 0.028-0.013 0.056-0.026 0.084-0.039 0.013-0.006 0.025-0.013 0.038-0.019 0.138-0.067 0.275-0.135 0.411-0.206 0 0 0-0 0-0s0-0 0-0c0.672-0.35 1.317-0.748 1.934-1.192 0-0 0-0 0-0 0.43 0.262 0.872 0.505 1.324 0.725 0.201 0.098 0.403 0.191 0.608 0.28 0.718 0.313 1.461 0.573 2.227 0.777 1.151 0.306 2.353 0.484 3.596 0.526 0.758 0.025 1.531 0 2.318-0.078l-0-0c0 0 0 0 0 0zM20.501 9.829c-0.012 0.1-0.025 0.2-0.040 0.299 0 0 0 0 0 0-0.022 0.148-0.046 0.295-0.072 0.443-0.021 0.118-0.045 0.237-0.069 0.355-0.006 0.028-0.011 0.057-0.018 0.085-0.055 0.257-0.117 0.513-0.186 0.767-0.001 0.005-0.003 0.011-0.004 0.016-0.033 0.121-0.068 0.241-0.105 0.361-0.045 0.149-0.092 0.297-0.142 0.444-0.084 0.248-0.175 0.494-0.273 0.737-0.011 0.027-0.022 0.055-0.033 0.082-0.047 0.116-0.095 0.231-0.145 0.345 0 0 0 0 0 0s0 0-0 0c-0.431 0.986-0.97 1.925-1.601 2.79-0-0-0-0-0-0-0.074 0.102-0.15 0.202-0.227 0.302-0.045 0.058-0.089 0.116-0.135 0.173-0.061 0.076-0.123 0.152-0.185 0.227-0.054 0.065-0.108 0.13-0.163 0.194-0.021 0.024-0.042 0.049-0.063 0.073-0.042 0.049-0.084 0.097-0.127 0.145-0.050 0.056-0.099 0.112-0.15 0.168-0.014 0.016-0.029 0.032-0.043 0.048-0.071 0.077-0.142 0.154-0.215 0.23-0.009 0.009-0.017 0.018-0.026 0.028-0.057 0.060-0.115 0.119-0.173 0.178-0.022 0.022-0.044 0.045-0.066 0.067l-0.004 0.004c-0.143 0.144-0.29 0.285-0.438 0.423-0.107-0.086-0.213-0.173-0.317-0.262-0.068-0.058-0.137-0.115-0.204-0.174-0.001-0.001-0.003-0.002-0.004-0.004-0.078-0.068-0.156-0.138-0.233-0.208-0.028-0.025-0.056-0.051-0.084-0.076-0.049-0.045-0.098-0.091-0.147-0.137-0.045-0.042-0.090-0.085-0.134-0.127-0.060-0.058-0.12-0.116-0.179-0.174-0.015-0.015-0.030-0.030-0.045-0.045-0.072-0.072-0.143-0.144-0.214-0.218-0.019-0.020-0.038-0.039-0.056-0.059-0.042-0.044-0.083-0.089-0.125-0.133-0.030-0.033-0.061-0.065-0.092-0.098-0.135-0.147-0.266-0.297-0.395-0.449-0.69-0.818-1.294-1.717-1.792-2.67-0-0-0-0-0-0s0-0 0-0c-0.062-0.118-0.121-0.236-0.18-0.356-0.005-0.010-0.010-0.020-0.015-0.030-0.057-0.116-0.112-0.234-0.165-0.352-0.005-0.012-0.011-0.024-0.016-0.036-0.048-0.106-0.094-0.213-0.14-0.321-0.017-0.039-0.033-0.078-0.048-0.116-0.036-0.086-0.070-0.173-0.104-0.26-0.015-0.040-0.031-0.079-0.046-0.119-0.038-0.1-0.075-0.2-0.11-0.3-0.006-0.018-0.013-0.036-0.019-0.054-0.066-0.189-0.127-0.38-0.184-0.571-0.027-0.091-0.054-0.182-0.080-0.273-0.031-0.11-0.061-0.22-0.089-0.33s-0.054-0.222-0.079-0.333c-0.011-0.048-0.022-0.097-0.032-0.145-0.022-0.103-0.044-0.206-0.063-0.309-0.004-0.019-0.007-0.039-0.011-0.058-0.019-0.103-0.037-0.205-0.053-0.308-0.005-0.030-0.010-0.061-0.014-0.091-0.019-0.121-0.036-0.242-0.051-0.363-0.001-0.007-0.002-0.014-0.002-0.021-0.032-0.258-0.055-0.516-0.071-0.775-0.001-0.017-0.002-0.033-0.003-0.050-0.007-0.124-0.012-0.248-0.016-0.373-0-0.008-0-0.015-0-0.023-0.002-0.102-0.003-0.205-0.003-0.307 0.195-0.121 0.456-0.274 0.775-0.437 1.012-0.519 2.596-1.149 4.44-1.228 1.338-0.057 2.812 0.175 4.302 0.95 0.285 0.148 0.571 0.315 0.856 0.505l0.015-0.039c0.052 0.788 0.026 1.582-0.071 2.371z">
            </path>
            <path fill="#c54291" style="fill: var(--color2, #c54291)"
                d="M15.481 18.551c-0.068-0.058-0.137-0.115-0.204-0.174-0.001-0.001-0.003-0.002-0.004-0.004-0.078-0.068-0.156-0.138-0.233-0.208-0.028-0.025-0.056-0.051-0.084-0.076-0.049-0.045-0.098-0.091-0.147-0.137-0.045-0.042-0.090-0.085-0.134-0.127-0.060-0.058-0.12-0.116-0.179-0.174-0.015-0.015-0.030-0.030-0.045-0.045-0.072-0.072-0.143-0.144-0.214-0.218-0.019-0.020-0.037-0.039-0.056-0.059-0.042-0.044-0.083-0.089-0.125-0.133-0.030-0.033-0.061-0.065-0.092-0.098-0.135-0.147-0.266-0.297-0.395-0.449-0.69-0.818-1.294-1.717-1.792-2.67-0-0-0-0-0-0s0-0 0-0c-0.062-0.118-0.121-0.236-0.18-0.356-0.005-0.010-0.010-0.020-0.015-0.030-0.057-0.116-0.112-0.234-0.165-0.352-0.005-0.012-0.011-0.024-0.016-0.036-0.048-0.106-0.094-0.213-0.14-0.321-0.016-0.039-0.032-0.078-0.048-0.116-0.036-0.086-0.070-0.173-0.104-0.26-0.015-0.040-0.031-0.079-0.046-0.119-0.038-0.1-0.075-0.2-0.11-0.3-0.006-0.018-0.013-0.036-0.019-0.054-0.066-0.189-0.127-0.38-0.184-0.571-0.060-0.2-0.118-0.401-0.169-0.603-0.028-0.111-0.054-0.222-0.079-0.333-0.011-0.048-0.021-0.097-0.032-0.145-0.022-0.103-0.044-0.206-0.063-0.309-0.004-0.019-0.007-0.039-0.011-0.058-0.019-0.103-0.037-0.205-0.053-0.308-0.005-0.030-0.010-0.061-0.014-0.091-0.019-0.121-0.036-0.242-0.051-0.363-0.001-0.007-0.002-0.014-0.002-0.021-0.032-0.258-0.055-0.516-0.071-0.775-0.001-0.017-0.002-0.034-0.003-0.050-0.007-0.124-0.012-0.248-0.016-0.373-0-0.008-0-0.015-0-0.023-0.002-0.102-0.003-0.205-0.003-0.307 0-0.014-0-0.028-0-0.041 0-0.021 0-0.042 0-0.063 0.001-0.123 0.004-0.246 0.010-0.369 0.001-0.027 0.003-0.054 0.004-0.081 0.005-0.106 0.011-0.211 0.019-0.317 0.001-0.015 0.002-0.030 0.004-0.045 0.010-0.122 0.022-0.244 0.035-0.366 0.002-0.014 0.003-0.027 0.005-0.041 0.012-0.104 0.027-0.209 0.042-0.313 0.005-0.033 0.009-0.066 0.014-0.099 0.017-0.113 0.037-0.225 0.058-0.338 0.004-0.019 0.007-0.039 0.011-0.058 0.023-0.12 0.048-0.24 0.075-0.36 0.003-0.014 0.007-0.028 0.010-0.042 0.023-0.099 0.048-0.198 0.074-0.296 0.010-0.038 0.020-0.076 0.030-0.113 0.032-0.116 0.065-0.232 0.101-0.348 0.001-0.002 0.001-0.004 0.002-0.006 0 0 0 0 0 0v0c-0.146 0.129-0.287 0.263-0.423 0.401-0.054 0.055-0.107 0.11-0.159 0.166-0.034 0.037-0.067 0.074-0.101 0.111-0.029 0.032-0.057 0.063-0.085 0.096-0.027 0.031-0.053 0.062-0.080 0.093-0.028 0.033-0.056 0.065-0.083 0.098-0.025 0.030-0.049 0.060-0.073 0.090-0.028 0.035-0.056 0.070-0.084 0.105-0.020 0.026-0.040 0.053-0.060 0.079-0.041 0.054-0.082 0.109-0.122 0.164-0.031 0.043-0.061 0.085-0.091 0.128-0.022 0.031-0.043 0.062-0.064 0.093-0.019 0.029-0.039 0.057-0.058 0.086-0.035 0.052-0.069 0.105-0.103 0.158-0.021 0.032-0.041 0.065-0.062 0.098-0.033 0.053-0.065 0.107-0.097 0.162-0.017 0.028-0.033 0.056-0.050 0.084-0.010 0.017-0.019 0.033-0.029 0.050-0.028 0.050-0.056 0.1-0.083 0.15-0.016 0.030-0.033 0.060-0.049 0.090-0.025 0.047-0.049 0.094-0.073 0.141-0.020 0.039-0.040 0.079-0.059 0.118-0.021 0.043-0.042 0.086-0.063 0.129-0.021 0.045-0.042 0.090-0.063 0.135-0.018 0.039-0.036 0.078-0.054 0.118-0.023 0.052-0.045 0.104-0.067 0.156-0.015 0.035-0.030 0.069-0.044 0.104-0.020 0.050-0.040 0.1-0.059 0.15-0.080 0.203-0.154 0.409-0.221 0.618-0.027 0.082-0.052 0.165-0.077 0.248-0.072 0.244-0.136 0.491-0.191 0.74-0.002 0.010-0.005 0.020-0.007 0.030-0.017 0.079-0.034 0.159-0.050 0.239-0.018 0.091-0.035 0.182-0.050 0.273-0.014 0.083-0.027 0.166-0.040 0.25-0.001 0.004-0.001 0.008-0.002 0.012-0.044 0.299-0.075 0.601-0.095 0.902-0.003 0.053-0.007 0.106-0.010 0.159-0.009 0.171-0.014 0.342-0.015 0.513-0.001 0.055-0.001 0.11-0.001 0.164 0.001 0.075 0.002 0.15 0.004 0.225 0 0.005 0 0.011 0 0.016 0 0.019 0.001 0.037 0.002 0.056 0.001 0.038 0.003 0.076 0.004 0.114 0.004 0.086 0.008 0.171 0.013 0.257 0.001 0.013 0.002 0.027 0.002 0.040 0.007 0.115 0.017 0.229 0.027 0.343 0.005 0.059 0.011 0.118 0.017 0.177 0.003 0.030 0.006 0.059 0.010 0.089 0.021 0.189 0.046 0.377 0.075 0.564 0.009 0.055 0.018 0.111 0.027 0.166 0.004 0.027 0.009 0.053 0.014 0.080 0.002 0.013 0.005 0.025 0.007 0.038 0.030 0.17 0.063 0.339 0.1 0.508 0.003 0.015 0.006 0.030 0.010 0.045 0.025 0.113 0.051 0.225 0.078 0.337 0.011 0.046 0.022 0.092 0.034 0.137 0.010 0.039 0.020 0.079 0.031 0.118s0.020 0.078 0.031 0.117c0.009 0.034 0.019 0.068 0.028 0.102 0.012 0.044 0.025 0.088 0.037 0.133 0.405 1.413 1.013 2.775 1.748 4.054 0.076 0.132 0.153 0.263 0.232 0.394 0.015 0.024 0.030 0.048 0.045 0.072 0.36 0.591 0.743 1.156 1.148 1.693 0 0 0 0 0 0 1.528-0.774 2.96-1.715 4.231-2.839 0-0 0-0 0-0l-0-0c0.085-0.076 0.17-0.152 0.254-0.229 0.010-0.009 0.021-0.019 0.031-0.028 0.026-0.024 0.052-0.049 0.078-0.074-0.107-0.086-0.212-0.173-0.317-0.262z">
            </path>
            <path fill="#c54291" style="fill: var(--color2, #c54291)"
                d="M26.149 28.683c-1.095-0.987-2.092-2.083-2.974-3.264-0.063-0.084-0.127-0.168-0.189-0.253 0.89-0.587 1.781-1.174 2.673-1.761 0.111-0.073 0.222-0.147 0.334-0.22 0 0 0-0 0-0-0.884-0.156-1.765-0.356-2.634-0.601-0.403-0.114-0.803-0.236-1.199-0.37-0.411-0.138-0.817-0.287-1.219-0.448-0.038-0.014-0.075-0.029-0.112-0.044-0.077-0.031-0.153-0.063-0.23-0.095l-0.003 0.005c-0.009 0.015-0.019 0.029-0.028 0.043-0.003 0.005-0.007 0.010-0.010 0.016-0.028 0.042-0.055 0.085-0.083 0.127-0.055 0.085-0.112 0.169-0.169 0.252-0.003 0.004-0.005 0.007-0.008 0.011-0.016 0.024-0.033 0.048-0.049 0.072-0.031 0.045-0.062 0.090-0.093 0.135-0.031 0.044-0.062 0.088-0.093 0.131-0.022 0.032-0.045 0.064-0.068 0.095-0.007 0.009-0.014 0.019-0.021 0.028-0.046 0.064-0.093 0.127-0.14 0.19-0.038 0.050-0.076 0.1-0.114 0.15-0.021 0.028-0.042 0.056-0.064 0.083-0.095 0.123-0.191 0.246-0.289 0.366-0.976 1.201-2.077 2.249-3.29 3.121 0.43 0.262 0.872 0.505 1.324 0.725 0.201 0.098 0.403 0.191 0.608 0.28 0.718 0.313 1.461 0.573 2.227 0.777 1.151 0.306 2.353 0.484 3.596 0.526 0.758 0.025 1.531 0 2.318-0.078l-0-0z">
            </path>
            <path fill="#00b2e6" style="fill: var(--color3, #00b2e6)"
                d="M20.571 7.458c-0.076-1.132-0.313-2.25-0.729-3.319-0.024-0.013-0.565-0.291-1.492-0.526-0.691-0.175-1.596-0.326-2.662-0.326-1.176 0.001-2.549 0.186-4.044 0.727-0.317 0.115-0.639 0.246-0.967 0.394-0.001 0.002-0.001 0.004-0.002 0.006-0.036 0.116-0.069 0.232-0.101 0.348-0.001 0.003-0.002 0.006-0.003 0.010-0.010 0.035-0.018 0.069-0.027 0.104-0.026 0.099-0.051 0.197-0.074 0.296-0.003 0.014-0.007 0.028-0.010 0.042-0.027 0.12-0.052 0.24-0.075 0.36-0.004 0.019-0.007 0.039-0.011 0.058-0.021 0.112-0.040 0.225-0.058 0.338-0.005 0.033-0.010 0.066-0.014 0.099-0.015 0.104-0.030 0.208-0.042 0.313-0.002 0.014-0.003 0.027-0.005 0.041-0.014 0.122-0.026 0.244-0.035 0.366-0.002 0.015-0.002 0.030-0.004 0.045-0.008 0.106-0.014 0.211-0.019 0.317-0.001 0.026-0.003 0.052-0.004 0.078-0 0.001-0 0.002-0 0.004-0.005 0.123-0.008 0.246-0.010 0.369v0.001c-0 0.021-0 0.041-0 0.061-0 0.014 0 0.028 0 0.041 0.195-0.121 0.456-0.274 0.775-0.437 1.012-0.519 2.596-1.149 4.44-1.228 1.338-0.057 2.812 0.175 4.302 0.95 0.285 0.148 0.571 0.315 0.856 0.505l0.015-0.039c0-0 0-0 0-0z">
            </path>
            <path fill="#935fa4" style="fill: var(--color4, #935fa4)"
                d="M20.571 7.458c-0.076-1.132-0.313-2.25-0.729-3.319-0.024-0.013-0.565-0.291-1.492-0.526-0.691-0.175-1.596-0.326-2.662-0.326-0.030 0.405-0.032 0.824-0.042 1.232-0.401-0.386-1.1-0.405-1.521-0.042-0.119 0.102-0.219 0.235-0.242 0.39-0.050 0.313 0.235 0.601 0.545 0.67s0.631-0.021 0.934-0.114c0.016 0.206 0.028 0.412 0.037 0.618 1.338-0.057 2.812 0.175 4.302 0.95 0.285 0.148 0.571 0.315 0.856 0.505l0.015-0.039c0 0 0-0 0-0z">
            </path>
            <path fill="#009bd8" style="fill: var(--color5, #009bd8)"
                d="M10.575 4.762c-0.001 0.003-0.002 0.006-0.003 0.010-0.010 0.035-0.018 0.069-0.027 0.104-0.026 0.099-0.051 0.197-0.074 0.296-0.003 0.014-0.007 0.028-0.010 0.042-0.027 0.12-0.052 0.24-0.075 0.36-0.004 0.019-0.007 0.039-0.011 0.058-0.021 0.112-0.040 0.225-0.058 0.338-0.005 0.033-0.010 0.066-0.014 0.099-0.015 0.104-0.030 0.208-0.042 0.313-0.002 0.014-0.003 0.027-0.005 0.041-0.014 0.122-0.026 0.244-0.035 0.366-0.002 0.015-0.002 0.030-0.004 0.045-0.008 0.106-0.014 0.211-0.019 0.317-0.001 0.026-0.003 0.052-0.004 0.078-0 0.001-0 0.002-0 0.004-0.005 0.123-0.008 0.246-0.010 0.369v0.001c-0 0.021-0 0.041-0 0.061-0 0.014 0 0.028 0 0.041 0.195-0.121 0.456-0.274 0.775-0.437 0.002-0.029 0.004-0.059 0.006-0.088 0.097-1.079 0.358-2.135 0.679-3.167-0.317 0.115-0.639 0.246-0.967 0.394-0.001 0.002-0.001 0.004-0.002 0.006-0.036 0.116-0.069 0.232-0.101 0.348z">
            </path>
            <path fill="#62348b" style="fill: var(--color6, #62348b)"
                d="M19.701 6.991c0.285 0.148 0.571 0.315 0.856 0.505l0.015-0.039c0 0 0-0 0-0-0.076-1.132-0.313-2.25-0.729-3.319-0.024-0.013-0.565-0.291-1.492-0.526 0.159 0.245 0.306 0.498 0.442 0.757 0.429 0.824 0.736 1.71 0.909 2.621z">
            </path>
            <path fill="#ffde08" style="fill: var(--color7, #ffde08)"
                d="M15.436 19.144c0-0 0-0 0-0l-0-0c0.085-0.076 0.17-0.152 0.254-0.229 0.010-0.009 0.021-0.019 0.031-0.028 0.026-0.024 0.052-0.049 0.078-0.074-0.107-0.086-0.212-0.173-0.317-0.262-0.068-0.058-0.137-0.115-0.204-0.174-0.001-0.001-0.003-0.002-0.004-0.004-0.078-0.068-0.156-0.138-0.233-0.208-0.028-0.025-0.056-0.051-0.084-0.076-0.049-0.045-0.098-0.091-0.147-0.137-0.045-0.042-0.090-0.085-0.134-0.127-0.060-0.058-0.12-0.116-0.179-0.174-0.015-0.015-0.030-0.030-0.045-0.045-0.072-0.072-0.143-0.144-0.214-0.218-0.019-0.020-0.037-0.039-0.056-0.059-0.042-0.044-0.083-0.089-0.125-0.133-0.031-0.033-0.062-0.065-0.092-0.098-0.135-0.147-0.266-0.297-0.394-0.449-0.29 0.249-0.59 0.488-0.897 0.717 0.586 0.294 0.698 1.225 0.199 1.65s-1.401 0.163-1.596-0.463c-0.479 0.447-0.978 0.871-1.495 1.272 0.076 0.132 0.153 0.264 0.232 0.394 0.015 0.024 0.030 0.048 0.045 0.072 0.36 0.591 0.743 1.156 1.148 1.693 0 0 0 0 0 0 1.528-0.774 2.96-1.715 4.231-2.839z">
            </path>
            <path fill="#ef7d19" style="fill: var(--color8, #ef7d19)"
                d="M8.073 11.679c-0.127-0.333-0.255-0.683-0.207-1.037s0.341-0.7 0.697-0.677c0.286 0.019 0.514 0.27 0.598 0.545s0.054 0.569 0.024 0.854c0.454-0.197 0.92-0.366 1.396-0.502-0.028-0.111-0.054-0.222-0.079-0.333-0.011-0.048-0.021-0.097-0.032-0.145-0.022-0.103-0.044-0.206-0.063-0.309-0.004-0.019-0.007-0.039-0.011-0.058-0.019-0.103-0.037-0.205-0.053-0.308-0.005-0.030-0.010-0.061-0.014-0.091-0.019-0.121-0.036-0.242-0.051-0.363-0.001-0.007-0.002-0.014-0.002-0.021-0.032-0.258-0.055-0.516-0.071-0.775-0.001-0.017-0.002-0.034-0.003-0.050-0.007-0.124-0.012-0.248-0.016-0.373-0-0.008-0-0.015-0-0.023-0.002-0.102-0.003-0.205-0.003-0.307 0-0.014-0-0.028-0-0.041 0-0.021 0-0.042 0-0.063 0.001-0.123 0.004-0.246 0.010-0.369 0.001-0.027 0.003-0.054 0.004-0.081 0.005-0.106 0.011-0.211 0.019-0.317 0.001-0.015 0.002-0.030 0.004-0.045 0.010-0.122 0.022-0.244 0.035-0.366 0.002-0.014 0.003-0.027 0.005-0.041 0.012-0.104 0.027-0.209 0.042-0.313 0.005-0.033 0.009-0.066 0.014-0.099 0.017-0.113 0.037-0.225 0.058-0.338 0.004-0.019 0.007-0.039 0.011-0.058 0.023-0.12 0.048-0.24 0.075-0.36 0.003-0.014 0.007-0.028 0.010-0.042 0.023-0.099 0.048-0.198 0.074-0.296 0.010-0.038 0.020-0.076 0.030-0.113 0.032-0.116 0.065-0.232 0.101-0.348 0.001-0.002 0.001-0.004 0.002-0.006 0 0 0 0 0 0v0c-0.146 0.129-0.287 0.263-0.423 0.401-0.054 0.055-0.107 0.11-0.159 0.166-0.034 0.037-0.067 0.074-0.101 0.111-0.029 0.032-0.057 0.063-0.085 0.096-0.027 0.031-0.053 0.062-0.080 0.093-0.028 0.033-0.056 0.065-0.083 0.098-0.025 0.030-0.049 0.060-0.073 0.090-0.028 0.035-0.056 0.070-0.084 0.105-0.020 0.026-0.040 0.053-0.060 0.079-0.041 0.054-0.082 0.109-0.122 0.164-0.031 0.043-0.061 0.085-0.091 0.128-0.022 0.031-0.043 0.062-0.064 0.093-0.019 0.029-0.039 0.057-0.058 0.086-0.035 0.052-0.069 0.105-0.103 0.158-0.021 0.032-0.041 0.065-0.062 0.098-0.033 0.053-0.065 0.107-0.097 0.162-0.017 0.028-0.033 0.056-0.050 0.084-0.010 0.017-0.019 0.033-0.029 0.050-0.028 0.050-0.056 0.1-0.083 0.15-0.016 0.030-0.033 0.060-0.049 0.090-0.025 0.047-0.049 0.094-0.073 0.141-0.020 0.039-0.040 0.079-0.059 0.118-0.021 0.043-0.042 0.086-0.063 0.129-0.021 0.045-0.042 0.090-0.063 0.135-0.018 0.039-0.036 0.078-0.054 0.118-0.023 0.052-0.045 0.104-0.067 0.156-0.015 0.035-0.030 0.069-0.044 0.104-0.020 0.050-0.040 0.1-0.059 0.15-0.080 0.203-0.154 0.409-0.221 0.618-0.027 0.082-0.052 0.165-0.077 0.248-0.072 0.244-0.136 0.491-0.191 0.74-0.002 0.010-0.005 0.020-0.007 0.030-0.017 0.079-0.034 0.159-0.050 0.239-0.018 0.091-0.035 0.182-0.050 0.273-0.014 0.083-0.027 0.166-0.040 0.25-0.001 0.004-0.001 0.008-0.002 0.012-0.044 0.299-0.075 0.601-0.095 0.902-0.003 0.053-0.007 0.106-0.010 0.159-0.009 0.171-0.014 0.342-0.015 0.513 0.202-0.077 0.4-0.166 0.591-0.266z">
            </path>
            <path fill="#4cbbbb" style="fill: var(--color9, #4cbbbb)"
                d="M9.415 15.11c-0.33-0.197-0.461-0.67-0.279-1.009s0.648-0.491 0.996-0.324c0.347 0.167 0.519 0.626 0.368 0.98 0.127-0.057 0.686-0.441 1.278-0.778 0 0 0-0 0-0-0.062-0.118-0.121-0.236-0.18-0.356-0.005-0.010-0.010-0.020-0.015-0.030-0.057-0.116-0.112-0.234-0.165-0.352-0.005-0.012-0.011-0.024-0.016-0.036-0.048-0.106-0.094-0.213-0.14-0.321-0.016-0.039-0.032-0.078-0.048-0.116-0.036-0.086-0.070-0.173-0.104-0.26-0.015-0.040-0.031-0.079-0.046-0.119-0.038-0.1-0.075-0.2-0.11-0.3-0.006-0.018-0.013-0.036-0.019-0.054-0.066-0.189-0.127-0.38-0.184-0.571-0.060-0.2-0.118-0.401-0.169-0.603-0.476 0.136-0.942 0.305-1.396 0.502 0.030-0.285 0.059-0.579-0.024-0.854s-0.312-0.525-0.598-0.545c-0.356-0.023-0.648 0.323-0.697 0.677s0.080 0.703 0.207 1.037c-0.192 0.1-0.389 0.189-0.591 0.266-0.001 0.055-0.001 0.11-0.001 0.164 0.001 0.075 0.002 0.15 0.004 0.225 0 0.005 0 0.011 0 0.016 0 0.019 0.001 0.037 0.002 0.056 0.001 0.038 0.003 0.076 0.004 0.114 0.004 0.086 0.008 0.171 0.013 0.257 0.001 0.013 0.002 0.027 0.002 0.040 0.007 0.115 0.017 0.229 0.027 0.343 0.005 0.059 0.011 0.118 0.017 0.177 0.003 0.030 0.006 0.059 0.010 0.089 0.021 0.189 0.046 0.377 0.075 0.564 0.009 0.055 0.018 0.111 0.027 0.166 0.004 0.027 0.009 0.053 0.014 0.080 0.002 0.013 0.005 0.025 0.007 0.038 0.030 0.17 0.063 0.339 0.1 0.508 0.003 0.015 0.006 0.030 0.010 0.045 0.025 0.113 0.051 0.225 0.078 0.337 0.011 0.046 0.022 0.092 0.034 0.137 0.010 0.039 0.020 0.079 0.031 0.118s0.020 0.078 0.031 0.117c0.009 0.034 0.019 0.068 0.028 0.102 0.012 0.044 0.024 0.088 0.037 0.132 0.461-0.22 0.922-0.441 1.383-0.662z">
            </path>
            <path fill="#a52083" style="fill: var(--color10, #a52083)"
                d="M18.939 25.43c0.745-1.038 1.326-2.173 1.853-3.326 0.051-0.11 0.101-0.224 0.148-0.338-0.038-0.014-0.075-0.029-0.112-0.044-0.077-0.031-0.153-0.063-0.23-0.095l-0.003 0.005c-0.009 0.015-0.019 0.029-0.028 0.043-0.003 0.005-0.007 0.010-0.010 0.016-0.028 0.042-0.055 0.085-0.083 0.127-0.055 0.085-0.112 0.169-0.169 0.252-0.003 0.004-0.005 0.007-0.008 0.011-0.016 0.024-0.033 0.048-0.049 0.072-0.031 0.045-0.062 0.090-0.093 0.135-0.031 0.044-0.062 0.088-0.093 0.131-0.022 0.032-0.045 0.064-0.068 0.095-0.007 0.009-0.014 0.019-0.021 0.028-0.046 0.064-0.093 0.127-0.14 0.19-0.038 0.050-0.076 0.1-0.114 0.15-0.021 0.028-0.042 0.056-0.064 0.083-0.095 0.123-0.191 0.246-0.289 0.366-0.976 1.201-2.077 2.249-3.29 3.121 0.43 0.262 0.872 0.505 1.324 0.725 0.111-0.105 0.214-0.208 0.308-0.3 0.455-0.446 0.864-0.935 1.232-1.448z">
            </path>
            <path fill="#ffde08" style="fill: var(--color7, #ffde08)"
                d="M14.495 24.647c-0.043-0.581-0.567-1.074-1.147-1.123s-1.159 0.323-1.396 0.854c-0.299-0.557-0.624-1.423-1.024-2.257-0-0-0-0-0-0-0.449 0.22-0.906 0.424-1.37 0.616-0.914 0.377-1.851 0.7-2.8 0.97-0.293 0.083-0.586 0.162-0.881 0.235 0.187 0.105 0.374 0.21 0.561 0.316 0.859 0.483 1.718 0.967 2.577 1.45-0 0-0 0-0 0-0.689 1.103-1.474 2.146-2.342 3.115-0.186 0.208-0.374 0.413-0.568 0.614-0 0-0 0-0 0 1.68 0.049 3.281-0.137 4.787-0.535 0.944-0.249 1.85-0.582 2.715-0.992 0.028-0.013 0.056-0.026 0.084-0.039 0.013-0.006 0.025-0.013 0.038-0.019 0.138-0.067 0.275-0.135 0.411-0.206 0 0 0-0 0-0-0.251-0.59-0.472-1.192-0.662-1.804 0.581-0.033 1.058-0.615 1.015-1.195z">
            </path>
            <path fill="#79c6bc" style="fill: var(--color11, #79c6bc)"
                d="M18.675 18.865c-0.528-0.388-0.481-1.326 0.083-1.659-0.322-0.207-0.638-0.425-0.945-0.653-0-0-0-0-0-0-0.074 0.102-0.15 0.202-0.227 0.302-0.045 0.058-0.089 0.116-0.135 0.173-0.114 0.143-0.23 0.282-0.348 0.421-0.021 0.024-0.042 0.049-0.063 0.073-0.042 0.049-0.084 0.097-0.127 0.145-0.050 0.056-0.099 0.112-0.15 0.168-0.014 0.016-0.029 0.032-0.043 0.048-0.071 0.077-0.142 0.154-0.215 0.23-0.009 0.009-0.017 0.018-0.026 0.028-0.057 0.060-0.115 0.119-0.173 0.178-0.023 0.024-0.046 0.048-0.070 0.071-0.143 0.144-0.29 0.285-0.438 0.423-0 0-0 0-0 0-0.026 0.024-0.052 0.049-0.078 0.074-0.010 0.009-0.020 0.019-0.031 0.028-0.084 0.077-0.168 0.154-0.254 0.229l0 0c0.635 0.53 1.235 1.103 1.795 1.713-0.489-0.118-0.99 0.356-0.993 0.86s0.394 0.95 0.868 1.118c0.554 0.198 1.354-0.125 1.299-0.71 0.252 0.291 0.581 0.771 0.961 1.208 0.098-0.12 0.194-0.243 0.289-0.366 0.021-0.028 0.042-0.056 0.064-0.083 0.086-0.112 0.17-0.225 0.254-0.34 0.007-0.009 0.014-0.019 0.021-0.028 0.086-0.119 0.171-0.24 0.255-0.361 0.016-0.024 0.033-0.048 0.049-0.072 0.088-0.129 0.175-0.259 0.26-0.39 0.003-0.005 0.007-0.010 0.010-0.016 0.040-0.062 0.079-0.125 0.118-0.188 0.062-0.098 0.124-0.196 0.185-0.296 0.073-0.12 0.145-0.241 0.216-0.363 0.011-0.018 0.021-0.036 0.032-0.054 0.073-0.126 0.144-0.254 0.214-0.382 0.018-0.033 0.036-0.066 0.054-0.099 0.077-0.142 0.152-0.285 0.226-0.429 0.028-0.054 0.054-0.109 0.081-0.164 0.041-0.082 0.082-0.163 0.122-0.245-0-0-0-0-0-0-0.544-0.363-1.072-0.752-1.581-1.164-0.15 0.638-1.032 0.961-1.56 0.574z">
            </path>
            <path fill="#ffde08" style="fill: var(--color7, #ffde08)"
                d="M20.571 7.458c0.052 0.788 0.026 1.582-0.071 2.371-0.012 0.1-0.025 0.199-0.040 0.299 0 0 0 0 0 0-0.022 0.148-0.046 0.295-0.072 0.443-0.025 0.136-0.051 0.273-0.079 0.409-0.002 0.011-0.005 0.021-0.007 0.032 0.031-0.147 0.060-0.293 0.087-0.441 0.485 0.103 0.961 0.238 1.428 0.403-0.050-0.282-0.1-0.574-0.035-0.853s0.275-0.546 0.558-0.585c0.353-0.048 0.669 0.277 0.742 0.626s-0.031 0.707-0.134 1.048c0.198 0.087 0.402 0.161 0.609 0.224 0.001 0.008 0.001 0.017 0.002 0.025-0.001-0.008-0.001-0.017-0.002-0.025-0.124-1.616-0.596-3.224-1.401-4.623 0 0 0-0 0-0-0.592-1.029-1.364-1.946-2.31-2.669-0-0-0-0-0-0l-0.003-0.003c0 0 0 0 0 0 0.417 1.069 0.653 2.187 0.729 3.319 0 0 0 0 0 0z">
            </path>
            <path fill="#ec677a" style="fill: var(--color12, #ec677a)"
                d="M22.948 11.21c0.103-0.341 0.207-0.7 0.134-1.048s-0.389-0.674-0.742-0.626c-0.284 0.039-0.493 0.306-0.558 0.585s-0.014 0.571 0.035 0.853c-0.467-0.165-0.943-0.3-1.428-0.403-0.026 0.147-0.056 0.294-0.087 0.441-0.055 0.257-0.117 0.513-0.186 0.767-0.001 0.005-0.003 0.011-0.004 0.016-0.033 0.121-0.068 0.241-0.105 0.361-0.045 0.149-0.092 0.297-0.142 0.444-0.084 0.248-0.175 0.494-0.273 0.737-0.011 0.027-0.022 0.055-0.033 0.082-0.047 0.116-0.095 0.231-0.145 0.345 0 0 0 0 0 0 0.615 0.295 1.199 0.639 1.33 0.687-0.176-0.343-0.036-0.813 0.298-1.004s0.81-0.073 1.016 0.254c0.205 0.325 0.108 0.806-0.208 1.026 0.475 0.188 0.95 0.376 1.425 0.563 0 0 0 0 0 0 0.020-0.092 0.038-0.185 0.056-0.278 0.003-0.013 0.005-0.027 0.008-0.040 0.011-0.059 0.023-0.119 0.033-0.178 0.007-0.040 0.014-0.081 0.021-0.121s0.014-0.081 0.020-0.122c0.007-0.043 0.014-0.086 0.020-0.129 0.007-0.045 0.013-0.089 0.020-0.134 0.006-0.040 0.012-0.080 0.017-0.121 0.012-0.087 0.023-0.174 0.033-0.261 0.008-0.070 0.016-0.139 0.023-0.209 0.011-0.11 0.020-0.22 0.029-0.329 0.001-0.015 0.002-0.030 0.003-0.044 0.014-0.191 0.024-0.381 0.030-0.572 0-0.008 0-0.017 0-0.025 0.003-0.118 0.005-0.237 0.005-0.356 0-0.021 0-0.042 0-0.063-0-0.033-0.001-0.065-0.001-0.098-0.001-0.064-0.002-0.127-0.004-0.191-0.001-0.022-0.001-0.043-0.002-0.065-0.004-0.118-0.009-0.237-0.016-0.355-0.003-0.046-0.007-0.092-0.010-0.139-0.001-0.008-0.001-0.017-0.002-0.025-0.207-0.063-0.41-0.137-0.609-0.224z">
            </path>
            <path fill="#00b2e6" style="fill: var(--color3, #00b2e6)"
                d="M23.175 25.419c-0.063-0.084-0.127-0.168-0.189-0.253 0.89-0.587 1.781-1.174 2.673-1.761 0.111-0.073 0.222-0.147 0.334-0.22 0 0 0-0 0-0-0.884-0.156-1.765-0.356-2.634-0.601-0.403-0.114-0.803-0.236-1.199-0.37-0.305 0.743-0.529 1.509-0.749 2.050-0.493-0.538-1.54-0.331-1.791 0.355s0.414 1.52 1.137 1.429c-0.149 0.734-0.322 1.464-0.521 2.186 1.151 0.306 2.352 0.485 3.596 0.526 0.758 0.025 1.531 0 2.318-0.078l-0-0c-1.095-0.987-2.092-2.083-2.974-3.264z">
            </path>
        </symbol>
        <symbol id="hand-with-puzzle" viewBox="0 0 32 32">
            <path fill="#fff" style="fill: var(--color1, #fff)" d="M0 0h32v32h-32v-32z"></path>
            <path fill="#f69322" style="fill: var(--color2, #f69322)"
                d="M8.904 15.585c-0.35 0.216-0.467 0.446-0.951 0.604-0.546 0.077-1.052-0.303-1.129-0.85-0.075-0.533 0.286-1.028 0.812-1.123 0.012-0.003 0.024-0.005 0.038-0.006 0.335-0.047 0.662 0.172 1.074 0.272l-0.3-2.128-5.404 0.763 0.299 2.12c-0.402-0.102-0.724-0.313-1.053-0.267-0.013 0.001-0.025 0.003-0.038 0.006-0.526 0.094-0.887 0.589-0.812 1.122 0.077 0.546 0.583 0.927 1.129 0.85 0.475-0.154 0.596-0.379 0.931-0.592l0.306 2.164 2.145-0.303c-0.094 0.434-0.332 0.774-0.283 1.122 0.001 0.013 0.003 0.025 0.006 0.037 0.094 0.526 0.589 0.888 1.123 0.812 0.546-0.077 0.927-0.583 0.849-1.129-0.163-0.503-0.406-0.609-0.629-0.993l2.192-0.309-0.306-2.173z">
            </path>
            <path fill="#e6e6e7" style="fill: var(--color3, #e6e6e7)"
                d="M10.485 19.345c-0.503 0.163-0.609 0.406-0.993 0.629l-0.309-2.192-2.174 0.306c0.216 0.35 0.446 0.467 0.604 0.951 0.077 0.546-0.303 1.052-0.85 1.129-0.534 0.075-1.028-0.286-1.123-0.812-0.002-0.012-0.005-0.024-0.006-0.037-0.047-0.335 0.172-0.662 0.272-1.074l-2.128 0.3 0.763 5.404 2.12-0.299c-0.102 0.402-0.313 0.724-0.266 1.053 0.001 0.013 0.003 0.025 0.006 0.038 0.095 0.526 0.589 0.887 1.122 0.812 0.547-0.077 0.927-0.582 0.85-1.129-0.154-0.475-0.379-0.597-0.592-0.932l2.164-0.305-0.303-2.145c0.435 0.094 0.774 0.332 1.122 0.283 0.013-0.002 0.026-0.004 0.037-0.007 0.526-0.094 0.888-0.589 0.812-1.123-0.077-0.547-0.583-0.927-1.129-0.85z">
            </path>
            <path fill="#f69322" style="fill: var(--color2, #f69322)"
                d="M15.852 18.575c-0.475 0.154-0.596 0.379-0.932 0.592l-0.305-2.164-2.145 0.303c0.094-0.435 0.332-0.774 0.283-1.122-0.001-0.013-0.003-0.025-0.007-0.038-0.094-0.526-0.589-0.887-1.123-0.812-0.546 0.077-0.927 0.582-0.849 1.129 0.163 0.503 0.406 0.609 0.629 0.993l-2.192 0.309 0.307 2.173c0.35-0.216 0.467-0.446 0.951-0.603 0.546-0.077 1.052 0.303 1.129 0.849 0.075 0.534-0.286 1.028-0.812 1.123-0.012 0.003-0.024 0.005-0.038 0.006-0.335 0.047-0.662-0.172-1.074-0.272l0.3 2.128 5.404-0.763-0.299-2.12c0.402 0.102 0.723 0.313 1.053 0.267 0.013-0.001 0.025-0.003 0.037-0.006 0.526-0.095 0.887-0.589 0.812-1.123-0.077-0.546-0.583-0.927-1.129-0.85z">
            </path>
            <path fill="#f2ba8b" style="fill: var(--color4, #f2ba8b)"
                d="M18.956 8.318l-1.124-1.243c0 0-0.144-0.319-0.772-0.248-0.474 0.054-2.005 0.149-2.704 0.252-0.346 0.050-0.378 0.011-0.723 0.559-0.434 0.69-1.382 2.525-1.382 2.525s0.702 0.442 1.292-0.338c0.402-0.533 0.701-0.976 0.864-1.272 0.138-0.251 1.295 0.001 1.295 0.001s1.409-0.016 1.657 0.381c0.526 0.842 1.202 2.393 1.202 2.393 0.121-0.209 1.391-2.382 0.394-3.009z">
            </path>
            <path fill="#fbc69a" style="fill: var(--color5, #fbc69a)"
                d="M19.151 7.795l-1.444-0.952c0 0-0.226-0.282-0.836-0.049-0.459 0.176-1.965 0.666-2.637 0.948-0.333 0.14-0.375 0.109-0.578 0.745-0.255 0.801-0.731 2.879-0.731 2.879s0.816 0.261 1.204-0.671c0.265-0.636 0.449-1.157 0.536-1.494 0.074-0.286 1.295-0.333 1.295-0.333s0.413-0.029 0.763 0.303c0.743 0.706 0.396 1.888 0.396 1.888l2.412-0.156c0.067-0.24 0.776-2.739-0.381-3.109z">
            </path>
            <path fill="#e6e6e7" style="fill: var(--color3, #e6e6e7)"
                d="M15.040 8.321c0.001-0.013 0.001-0.025 0-0.038-0.010-0.534-0.44-0.97-0.979-0.98-0.552-0.011-1.008 0.428-1.019 0.979 0.077 0.494 0.279 0.649 0.436 1.014l-2.185-0.043-0.042 2.166c-0.414-0.162-0.711-0.451-1.063-0.458-0.013-0.001-0.026-0.001-0.038 0-0.534 0.009-0.97 0.44-0.98 0.979-0.011 0.552 0.428 1.007 0.979 1.018 0.523-0.081 0.666-0.303 1.081-0.463l-0.043 2.213 2.194 0.043c-0.157-0.38-0.366-0.532-0.444-1.034 0.011-0.552 0.466-0.99 1.018-0.979 0.539 0.010 0.97 0.446 0.979 0.981 0.001 0.012 0.001 0.025 0 0.038-0.007 0.338-0.275 0.626-0.44 1.017l2.148 0.042 0.107-5.456-2.14-0.042c0.165-0.38 0.424-0.664 0.431-0.997z">
            </path>
            <path fill="#fbc69a" style="fill: var(--color5, #fbc69a)"
                d="M20.849 8.325c-0.543-0.239-3.308-1.586-3.308-1.586l0.586 3.904c0 0-2.213 0.731-2.571 1.192s-0.522 1.127-0.355 1.129c0.167 0.002 3.038-0.672 3.905-0.725 0.486-0.030 2.224-0.147 2.224-0.147l1.256 0.402 0.891-2.784-1.117-0.357c0-0-1.051-0.825-1.511-1.028z">
            </path>
            <path fill="#d0d2d3" style="fill: var(--color6, #d0d2d3)"
                d="M21.789 13.029l1.014 0.316 1.335-3.954-1.014-0.316z"></path>
            <path fill="#f0f1f1" style="fill: var(--color7, #f0f1f1)"
                d="M22.456 11.048l1.014 0.316 0.664-1.966-1.014-0.316z"></path>
            <path fill="#221f1f" style="fill: var(--color8, #221f1f)"
                d="M24.009 9.136l-1.457 4.317 9.472 3.043v-4.785z"></path>
            <path fill="#f0f1f1" style="fill: var(--color7, #f0f1f1)"
                d="M23.663 12.948c-0.099-0.059-0.227-0.026-0.286 0.073s-0.025 0.227 0.074 0.285c0.099 0.059 0.227 0.025 0.285-0.073s0.025-0.227-0.073-0.285z">
            </path>
            <path fill="#f0f1f1" style="fill: var(--color7, #f0f1f1)"
                d="M24.344 13.16c-0.099-0.058-0.227-0.025-0.285 0.074s-0.026 0.227 0.073 0.285c0.099 0.058 0.227 0.025 0.285-0.074s0.025-0.227-0.074-0.285z">
            </path>
            <path fill="#f0f1f1" style="fill: var(--color7, #f0f1f1)"
                d="M25.025 13.372c-0.099-0.058-0.227-0.025-0.285 0.074s-0.026 0.227 0.073 0.285c0.099 0.058 0.227 0.025 0.285-0.074s0.026-0.227-0.073-0.285z">
            </path>
            <path fill="#403f41" style="fill: var(--color9, #403f41)"
                d="M24.009 9.136l-0.728 2.159 8.743 2.809v-2.392z"></path>
        </symbol>
    </defs>
</svg>