<svg xmlns="http://www.w3.org/2000/svg" aria-hidden="true" style="position:absolute;width:0;height:0;overflow:hidden">
    <defs>
        <symbol id="heart" viewBox="0 0 22 20">
            <path
                d="M16.021 0c-1.926 0-3.768 0.884-4.968 2.274-1.2-1.389-3.053-2.274-4.968-2.274-3.411 0-6.084 2.642-6.084 5.989 0 4.116 3.758 7.474 9.453 12.568l1.6 1.442 1.6-1.432c5.695-5.095 9.453-8.453 9.453-12.579 0-3.347-2.674-5.989-6.084-5.989zM12.347 16.768l-1.295 1.126-1.295-1.137c-4.611-4.021-7.653-6.663-7.653-9.916 0-2.653 2.168-4.737 4.916-4.737 1.558 0 3.053 0.695 4.032 1.8 0.979-1.105 2.474-1.8 4.032-1.8 2.747 0 4.916 2.084 4.916 4.737 0 3.253-3.042 5.895-7.653 9.926z">
            </path>
        </symbol>
        <symbol id="puzzle-icon" viewBox="0 0 35 32">
            <path
                d="M8.527 31.843c1.691 0 3.065-1.23 3.065-2.744 0-0.541-0.176-1.045-0.481-1.471h0.083c-1.346-1.471-1.204-2.675 0.222-3.097h4.716c0.532 0 0.968-0.435 0.968-0.968v-4.187c0.33-2.858 1.551-2.009 2.989-1.124 3.472 2.137 5.781-2.926 2.974-4.659-2.203-1.361-3.156 0.979-4.77 0.737-0.623-0.094-1.056-0.768-1.193-1.793v-4.138c0-0.532-0.435-0.968-0.968-0.968h-4.13c-1.955-0.248-2.325-1.563-0.811-3.216h-0.083c0.305-0.427 0.481-0.931 0.481-1.471 0.003-1.514-1.369-2.744-3.063-2.744-1.691 0-3.063 1.23-3.063 2.744 0 0.541 0.176 1.045 0.481 1.471h-0.020c1.514 1.654 1.147 2.971-0.811 3.216h-4.147c-0.532 0-0.968 0.435-0.968 0.968v4.315c0.31 1.776 1.591 2.066 3.185 0.606v0.020c0.427-0.305 0.931-0.481 1.472-0.481 1.514 0 2.744 1.372 2.744 3.063s-1.23 3.063-2.744 3.063c-0.541 0-1.045-0.176-1.471-0.481v0.083c-1.594-1.46-2.875-1.167-3.185 0.609v4.372c0 0.532 0.435 0.968 0.968 0.968h4.733c1.426 0.421 1.571 1.625 0.222 3.097h0.020c-0.302 0.427-0.481 0.931-0.481 1.471 0.003 1.514 1.375 2.744 3.065 2.741v0 0zM26.447 32h-0.006c-1.691 0-3.065-1.23-3.065-2.744 0-0.541 0.176-1.045 0.481-1.471h-0.020c1.346-1.471 1.204-2.675-0.222-3.097h-4.733c-0.532 0-0.968-0.435-0.968-0.968v-4.363c0.228-0.66 0.518-0.894 0.86-0.902 0.157-0.003 0.322 0.040 0.498 0.114 0.495 0.205 1.076 0.635 1.708 0.879 2.436 0.939 4.528-1.432 4.389-3.868-0.031-0.544-0.25-1.079-0.575-1.574-1.244-1.901-3.085-2.081-4.861-0.996-0.905 0.555-1.625 0.973-2.038-0.333l0.023-4.124c0.003-0.532 0.435-0.968 0.968-0.968h4.144c1.955-0.248 2.325-1.563 0.811-3.216h0.020c-0.305-0.427-0.481-0.931-0.481-1.471 0-1.514 1.372-2.744 3.065-2.744h0.006c1.691 0 3.065 1.23 3.065 2.744 0 0.541-0.176 1.045-0.481 1.471h0.020c-1.514 1.654-1.147 2.971 0.811 3.216h4.144c0.532 0 0.968 0.435 0.968 0.968v4.315c-0.31 1.776-1.591 2.066-3.185 0.606v0.020c-0.427-0.305-0.931-0.481-1.471-0.481-1.514 0-2.744 1.372-2.744 3.063s1.23 3.065 2.744 3.065c0.541 0 1.045-0.176 1.471-0.481v0.083c1.597-1.46 2.875-1.167 3.185 0.609v4.363c0 0.532-0.435 0.968-0.968 0.968h-4.733c-1.426 0.421-1.568 1.625-0.222 3.097h-0.023c0.305 0.427 0.481 0.931 0.481 1.471-0.003 1.52-1.375 2.749-3.065 2.749v0 0z">
            </path>
        </symbol>
        <symbol id="puzzle" viewBox="0 0 26 32">
            <path
                d="M17.253 7.52c-0.568 0.099-1.003 0.539-1.099 1.112l-0.032 0.195h-1.093c-0.672 0-1.133 0.011-1.195 0.027-0.133 0.037-0.259 0.147-0.317 0.28-0.045 0.099-0.051 0.197-0.051 1.232v1.125l0.128 0.016c0.347 0.048 0.595 0.168 0.819 0.397 0.768 0.784 0.309 2.117-0.773 2.251l-0.16 0.019-0.008 1.107c-0.005 0.715 0.003 1.141 0.021 1.203 0.037 0.131 0.117 0.229 0.243 0.291 0.096 0.051 0.16 0.053 1.245 0.053h1.141l0.032 0.203c0.080 0.515 0.456 0.939 0.963 1.088 0.179 0.053 0.501 0.056 0.685 0.005 0.507-0.136 0.896-0.565 0.976-1.091l0.035-0.205h1.141c1.067 0 1.147-0.003 1.24-0.051 0.123-0.061 0.179-0.123 0.232-0.251 0.035-0.083 0.040-0.272 0.040-1.232v-1.133h-0.099c-0.408-0.003-0.888-0.328-1.093-0.739-0.395-0.797 0.107-1.76 0.992-1.904l0.2-0.032v-1.123c0-1.032-0.005-1.131-0.051-1.229-0.059-0.133-0.184-0.243-0.317-0.28-0.061-0.016-0.523-0.027-1.192-0.027h-1.096l-0.029-0.187c-0.067-0.429-0.344-0.808-0.728-0.995-0.272-0.133-0.528-0.173-0.8-0.125z">
            </path>
            <path
                d="M4.379 8.909c-0.069 0.035-0.147 0.104-0.187 0.165l-0.072 0.109-0.016 2.325-0.2 0.032c-0.643 0.101-1.131 0.667-1.131 1.312s0.488 1.211 1.131 1.312l0.203 0.035v1.131c0 1.099 0.003 1.136 0.056 1.251 0.035 0.069 0.101 0.144 0.165 0.187l0.109 0.072 2.336 0.016v-0.091c0-0.253 0.147-0.581 0.363-0.816 0.752-0.813 2.109-0.395 2.285 0.704l0.032 0.203 2.323-0.016 0.096-0.064c0.051-0.035 0.123-0.107 0.157-0.157l0.064-0.096 0.016-2.331 0.147-0.019c0.512-0.064 0.912-0.381 1.104-0.88 0.091-0.229 0.091-0.651 0-0.88-0.192-0.493-0.595-0.816-1.101-0.88l-0.152-0.019-0.003-1.125c0-0.8-0.011-1.147-0.035-1.211-0.043-0.123-0.192-0.267-0.307-0.299-0.056-0.016-0.544-0.027-1.203-0.027h-1.107l-0.035 0.203c-0.101 0.651-0.667 1.131-1.331 1.131-0.341 0-0.656-0.136-0.917-0.397-0.243-0.243-0.397-0.573-0.397-0.848v-0.088h-1.139c-1.112 0-1.144 0.003-1.256 0.056z">
            </path>
        </symbol>
        <symbol id="hand-with-puzzle" viewBox="0 0 32 32">
            <path fill="#fff" style="fill: var(--color1, #fff)" d="M0 0h32v32h-32v-32z"></path>
            <path fill="#f69322" style="fill: var(--color2, #f69322)"
                d="M8.904 15.585c-0.35 0.216-0.467 0.446-0.951 0.604-0.546 0.077-1.052-0.303-1.129-0.85-0.075-0.533 0.286-1.028 0.812-1.123 0.012-0.003 0.024-0.005 0.038-0.006 0.335-0.047 0.662 0.172 1.074 0.272l-0.3-2.128-5.404 0.763 0.299 2.12c-0.402-0.102-0.724-0.313-1.053-0.267-0.013 0.001-0.025 0.003-0.038 0.006-0.526 0.094-0.887 0.589-0.812 1.122 0.077 0.546 0.583 0.927 1.129 0.85 0.475-0.154 0.596-0.379 0.931-0.592l0.306 2.164 2.145-0.303c-0.094 0.434-0.332 0.774-0.283 1.122 0.001 0.013 0.003 0.025 0.006 0.037 0.094 0.526 0.589 0.888 1.123 0.812 0.546-0.077 0.927-0.583 0.849-1.129-0.163-0.503-0.406-0.609-0.629-0.993l2.192-0.309-0.306-2.173z">
            </path>
            <path fill="#e6e6e7" style="fill: var(--color3, #e6e6e7)"
                d="M10.485 19.345c-0.503 0.163-0.609 0.406-0.993 0.629l-0.309-2.192-2.174 0.306c0.216 0.35 0.446 0.467 0.604 0.951 0.077 0.546-0.303 1.052-0.85 1.129-0.534 0.075-1.028-0.286-1.123-0.812-0.002-0.012-0.005-0.024-0.006-0.037-0.047-0.335 0.172-0.662 0.272-1.074l-2.128 0.3 0.763 5.404 2.12-0.299c-0.102 0.402-0.313 0.724-0.266 1.053 0.001 0.013 0.003 0.025 0.006 0.038 0.095 0.526 0.589 0.887 1.122 0.812 0.547-0.077 0.927-0.582 0.85-1.129-0.154-0.475-0.379-0.597-0.592-0.932l2.164-0.305-0.303-2.145c0.435 0.094 0.774 0.332 1.122 0.283 0.013-0.002 0.026-0.004 0.037-0.007 0.526-0.094 0.888-0.589 0.812-1.123-0.077-0.547-0.583-0.927-1.129-0.85z">
            </path>
            <path fill="#f69322" style="fill: var(--color2, #f69322)"
                d="M15.852 18.575c-0.475 0.154-0.596 0.379-0.932 0.592l-0.305-2.164-2.145 0.303c0.094-0.435 0.332-0.774 0.283-1.122-0.001-0.013-0.003-0.025-0.007-0.038-0.094-0.526-0.589-0.887-1.123-0.812-0.546 0.077-0.927 0.582-0.849 1.129 0.163 0.503 0.406 0.609 0.629 0.993l-2.192 0.309 0.307 2.173c0.35-0.216 0.467-0.446 0.951-0.603 0.546-0.077 1.052 0.303 1.129 0.849 0.075 0.534-0.286 1.028-0.812 1.123-0.012 0.003-0.024 0.005-0.038 0.006-0.335 0.047-0.662-0.172-1.074-0.272l0.3 2.128 5.404-0.763-0.299-2.12c0.402 0.102 0.723 0.313 1.053 0.267 0.013-0.001 0.025-0.003 0.037-0.006 0.526-0.095 0.887-0.589 0.812-1.123-0.077-0.546-0.583-0.927-1.129-0.85z">
            </path>
            <path fill="#f2ba8b" style="fill: var(--color4, #f2ba8b)"
                d="M18.956 8.318l-1.124-1.243c0 0-0.144-0.319-0.772-0.248-0.474 0.054-2.005 0.149-2.704 0.252-0.346 0.050-0.378 0.011-0.723 0.559-0.434 0.69-1.382 2.525-1.382 2.525s0.702 0.442 1.292-0.338c0.402-0.533 0.701-0.976 0.864-1.272 0.138-0.251 1.295 0.001 1.295 0.001s1.409-0.016 1.657 0.381c0.526 0.842 1.202 2.393 1.202 2.393 0.121-0.209 1.391-2.382 0.394-3.009z">
            </path>
            <path fill="#fbc69a" style="fill: var(--color5, #fbc69a)"
                d="M19.151 7.795l-1.444-0.952c0 0-0.226-0.282-0.836-0.049-0.459 0.176-1.965 0.666-2.637 0.948-0.333 0.14-0.375 0.109-0.578 0.745-0.255 0.801-0.731 2.879-0.731 2.879s0.816 0.261 1.204-0.671c0.265-0.636 0.449-1.157 0.536-1.494 0.074-0.286 1.295-0.333 1.295-0.333s0.413-0.029 0.763 0.303c0.743 0.706 0.396 1.888 0.396 1.888l2.412-0.156c0.067-0.24 0.776-2.739-0.381-3.109z">
            </path>
            <path fill="#e6e6e7" style="fill: var(--color3, #e6e6e7)"
                d="M15.040 8.321c0.001-0.013 0.001-0.025 0-0.038-0.010-0.534-0.44-0.97-0.979-0.98-0.552-0.011-1.008 0.428-1.019 0.979 0.077 0.494 0.279 0.649 0.436 1.014l-2.185-0.043-0.042 2.166c-0.414-0.162-0.711-0.451-1.063-0.458-0.013-0.001-0.026-0.001-0.038 0-0.534 0.009-0.97 0.44-0.98 0.979-0.011 0.552 0.428 1.007 0.979 1.018 0.523-0.081 0.666-0.303 1.081-0.463l-0.043 2.213 2.194 0.043c-0.157-0.38-0.366-0.532-0.444-1.034 0.011-0.552 0.466-0.99 1.018-0.979 0.539 0.010 0.97 0.446 0.979 0.981 0.001 0.012 0.001 0.025 0 0.038-0.007 0.338-0.275 0.626-0.44 1.017l2.148 0.042 0.107-5.456-2.14-0.042c0.165-0.38 0.424-0.664 0.431-0.997z">
            </path>
            <path fill="#fbc69a" style="fill: var(--color5, #fbc69a)"
                d="M20.849 8.325c-0.543-0.239-3.308-1.586-3.308-1.586l0.586 3.904c0 0-2.213 0.731-2.571 1.192s-0.522 1.127-0.355 1.129c0.167 0.002 3.038-0.672 3.905-0.725 0.486-0.030 2.224-0.147 2.224-0.147l1.256 0.402 0.891-2.784-1.117-0.357c0-0-1.051-0.825-1.511-1.028z">
            </path>
            <path fill="#d0d2d3" style="fill: var(--color6, #d0d2d3)"
                d="M21.789 13.029l1.014 0.316 1.335-3.954-1.014-0.316z"></path>
            <path fill="#f0f1f1" style="fill: var(--color7, #f0f1f1)"
                d="M22.456 11.048l1.014 0.316 0.664-1.966-1.014-0.316z"></path>
            <path fill="#221f1f" style="fill: var(--color8, #221f1f)"
                d="M24.009 9.136l-1.457 4.317 9.472 3.043v-4.785z"></path>
            <path fill="#f0f1f1" style="fill: var(--color7, #f0f1f1)"
                d="M23.663 12.948c-0.099-0.059-0.227-0.026-0.286 0.073s-0.025 0.227 0.074 0.285c0.099 0.059 0.227 0.025 0.285-0.073s0.025-0.227-0.073-0.285z">
            </path>
            <path fill="#f0f1f1" style="fill: var(--color7, #f0f1f1)"
                d="M24.344 13.16c-0.099-0.058-0.227-0.025-0.285 0.074s-0.026 0.227 0.073 0.285c0.099 0.058 0.227 0.025 0.285-0.074s0.025-0.227-0.074-0.285z">
            </path>
            <path fill="#f0f1f1" style="fill: var(--color7, #f0f1f1)"
                d="M25.025 13.372c-0.099-0.058-0.227-0.025-0.285 0.074s-0.026 0.227 0.073 0.285c0.099 0.058 0.227 0.025 0.285-0.074s0.026-0.227-0.073-0.285z">
            </path>
            <path fill="#403f41" style="fill: var(--color9, #403f41)"
                d="M24.009 9.136l-0.728 2.159 8.743 2.809v-2.392z"></path>
        </symbol>
    </defs>
</svg>